<svg xmlns="http://www.w3.org/2000/svg" xmlns:xlink="http://www.w3.org/1999/xlink" width="511.382" height="511.104" viewBox="0 0 511.382 511.104">
  <defs>
    <filter id="Path_50" x="265.171" y="101.413" width="215.409" height="126.278" filterUnits="userSpaceOnUse">
      <feOffset dx="8" dy="3" input="SourceAlpha"/>
      <feGaussianBlur stdDeviation="10" result="blur"/>
      <feFlood flood-color="#fff" flood-opacity="0.412" result="color"/>
      <feComposite operator="out" in="SourceGraphic" in2="blur"/>
      <feComposite operator="in" in="color"/>
      <feComposite operator="in" in2="SourceGraphic"/>
    </filter>
  </defs>
  <g id="pie" transform="translate(-5010.292 -198.092)">
    <path id="Path_48" data-name="Path 48" d="M5813.551,1471.35l25.431,33.523-22,152.039s-6.5,16.416,14.364,16.074c.684.342,168.263,0,168.263,0s9.576-2.052,13,6.5c.342.684,19.494,33.174,19.494,33.174s-8.55,137.825-168.838,196.222c-.578,0-110.393,40.459-206.337-28.321-.578-.578-84.962-63-97.677-157.788" transform="translate(-547.539 -1212.009)" fill="#343434" stroke="#707070" stroke-width="1"/>
    <path id="Path_52" data-name="Path 52" d="M6317.191,1669.964s4.581,1.7,6.49,5.9c.191.382,22.666,31.112,31.112,63.179s2.672,65.087,2.672,65.087-1.337,3.436-4.772,3.245H6321.2l-17.178-29.585s-3.817-4.963-12.026-4.008c0-.573-167.758,0-167.758,0s-3.136-.158-4.219-2.348c.249.248-4.218-7.2-4.218-7.2s-1.489-3.722,4.218-5.459C6120.019,1758.532,6317.191,1669.964,6317.191,1669.964Z" transform="translate(-837.717 -1315.595)" fill="gray"/>
    <path id="Path_47" data-name="Path 47" d="M5798.885,1582.514l17.318-111.648s2.858-8.342-8.753-8.574c-.232,0-111.747-6.627-201.616,103.256.392.392-71.857,82.217-35.125,192.925.511,0,50,118.872,181.114,119.892.51-1.02,194.377,9.183,252.026-185.194.514.511,4.022-15.1,4.022-15.1s4.644-11.611-10.361-10.718c-.179-.179-191.127.715-191.127.715s-11.446.453-15.705-6.142c-1.924-3.985-2.779-11.056-.729-20.652C5789.771,1641.1,5798.885,1582.514,5798.885,1582.514Z" transform="translate(-550 -1206.766)" fill="#444"/>
    <path id="Path_49" data-name="Path 49" d="M6138.321,1343.334c-2.181,13.083-27.8,197.342-27.8,197.342l201.616-94.926S6284.965,1352.6,6138.321,1343.334Z" transform="translate(-835.054 -1145.243)" fill="#f6d392"/>
    <g data-type="innerShadowGroup">
      <path id="Path_50-2" data-name="Path 50" d="M6311.75,1555.294l13.521,30.031s2.73,3.97-2.977,7.444c.5,0-191.4,88.373-191.4,88.373s-5.153,1.718-6.3-1.718c0,.191-14.077-28.275-14.077-28.275Z" transform="translate(-835.051 -1255.789)" fill="#e5bc70"/>
      <g transform="matrix(1, 0, 0, 1, 5010.29, 198.09)" filter="url(#Path_50)">
        <path id="Path_50-3" data-name="Path 50" d="M6311.75,1555.294l13.521,30.031s2.73,3.97-2.977,7.444c.5,0-191.4,88.373-191.4,88.373s-5.153,1.718-6.3-1.718c0,.191-14.077-28.275-14.077-28.275Z" transform="translate(-5845.34 -1453.88)" fill="#fff"/>
      </g>
    </g>
    <path id="Path_51" data-name="Path 51" d="M6120.488,1758.322c12.447-5.714,189.988-87.384,189.988-87.384s7.36-3.665,11.29,3.226c0,.645,21.29,33.87,12.9,84.514.1.452-1.579,5.9-9.546,5.065.419.839-203.489.688-203.489.688S6107.637,1764.58,6120.488,1758.322Z" transform="translate(-837.422 -1315.595)" fill="#ababab"/>
  </g>
</svg>
