<svg xmlns="http://www.w3.org/2000/svg" width="2546.959" height="2603.231" viewBox="0 0 2546.959 2603.231">
  <g id="wallet" transform="translate(-6196.584 4212.832)">
    <g id="Group_166" data-name="Group 166" transform="matrix(0.985, 0.174, -0.174, 0.985, -172.226, -5722.809)">
      <g id="_2086_Converted_" data-name="2086 [Converted]" transform="translate(6534.259 -61.169)">
        <g id="Group_165" data-name="Group 165">
          <g id="Group_124" data-name="Group 124">
            <g id="Group_71" data-name="Group 71" transform="translate(357.685 784.017)" opacity="0.55">
              <g id="Group_69" data-name="Group 69">
                <path id="Path_141" data-name="Path 141" d="M36.669,58.9a131.617,131.617,0,0,0-6.956,14.55,129.567,129.567,0,0,0-9.464,48.7V75.893a130.432,130.432,0,0,1,1.48-19.633A129.4,129.4,0,0,1,32.884,19.988,132,132,0,0,1,42.1,3.738,105.781,105.781,0,0,0,36.9,18.665a86.291,86.291,0,0,0-2.541,14.212,74.147,74.147,0,0,0-.025,13.432A68.171,68.171,0,0,0,36.669,58.9Z" fill="#fff"/>
              </g>
              <g id="Group_70" data-name="Group 70">
                <g id="Path_142" data-name="Path 142" fill="none" stroke-miterlimit="10">
                  <path d="M36.669,58.9a131.617,131.617,0,0,0-6.956,14.55,129.567,129.567,0,0,0-9.464,48.7V75.893a130.432,130.432,0,0,1,1.48-19.633A129.4,129.4,0,0,1,32.884,19.988,132,132,0,0,1,42.1,3.738,105.781,105.781,0,0,0,36.9,18.665a86.291,86.291,0,0,0-2.541,14.212,74.147,74.147,0,0,0-.025,13.432A68.171,68.171,0,0,0,36.669,58.9Z" stroke="none"/>
                  <path d="M 20.24947357177734 122.1467208862305 L 20.24947357177734 75.89318084716797 C 20.24947357177734 69.21529388427734 20.75537109375 62.66021728515625 21.72919654846191 56.26055145263672 C 22.70302391052246 49.86102676391602 24.14491653442383 43.61677169799805 26.01676750183105 37.56053161621094 C 27.88847732543945 31.50429344177246 30.19028663635254 25.63593292236328 32.88422012329102 19.9879150390625 C 35.57815551757813 14.33989524841309 38.66421890258789 8.912219047546387 42.10429763793945 3.737632513046265 C 39.9072265625 8.825550079345703 38.18006134033203 13.80506038665771 36.89724731445313 18.66529655456543 C 35.61443328857422 23.5255298614502 34.77597427368164 28.2664909362793 34.35674667358398 32.87744522094727 C 33.93751907348633 37.4884033203125 33.93751907348633 41.96921539306641 34.33133697509766 46.30915451049805 C 34.72529983520508 50.64895248413086 35.51308441162109 54.84787750244141 36.6694221496582 58.89506149291992 C 34.06766128540039 63.57828903198242 31.74058723449707 68.43485260009766 29.71332550048828 73.44499206542969 C 27.68606185913086 78.45527648925781 25.95889472961426 83.61913299560547 24.55680656433105 88.91652679443359 C 23.15471839904785 94.21392059326172 22.07798957824707 99.64512634277344 21.35160827636719 105.1901016235352 C 20.6252269744873 110.7352142333984 20.24947357177734 116.3939590454102 20.24947357177734 122.1467208862305 Z M 20.24947357177734 122.1467208862305 C 20.24947357177734 116.3939590454102 20.6252269744873 110.7352142333984 21.35160827636719 105.1901016235352 C 22.07798957824707 99.64512634277344 23.15471839904785 94.21392059326172 24.55680656433105 88.91652679443359 C 25.95889472961426 83.61913299560547 27.68606185913086 78.45527648925781 29.71332550048828 73.44499206542969 C 31.74058723449707 68.43485260009766 34.06766128540039 63.57828903198242 36.6694221496582 58.89506149291992 C 35.51308441162109 54.84787750244141 34.72529983520508 50.64895248413086 34.33133697509766 46.30915451049805 C 33.93751907348633 41.96921539306641 33.93751907348633 37.4884033203125 34.35674667358398 32.87744522094727 C 34.77597427368164 28.2664909362793 35.61443328857422 23.5255298614502 36.89724731445313 18.66529655456543 C 38.18006134033203 13.80506038665771 39.9072265625 8.825550079345703 42.10429763793945 3.737632513046265 C 38.66421890258789 8.912219047546387 35.57815551757813 14.33989524841309 32.88422012329102 19.9879150390625 C 30.19028663635254 25.63593292236328 27.88847732543945 31.50429344177246 26.01676750183105 37.56053161621094 C 24.14491653442383 43.61677169799805 22.70302391052246 49.86102676391602 21.72919654846191 56.26055145263672 C 20.75537109375 62.66021728515625 20.24947357177734 69.21529388427734 20.24947357177734 75.89318084716797 L 20.24947357177734 122.1467208862305 Z" stroke="none" fill="#66142e"/>
                </g>
              </g>
            </g>
            <g id="Group_72" data-name="Group 72" transform="translate(289.632 546.06)" opacity="0.55">
              <path id="Path_143" data-name="Path 143" d="M1857.5,850.507v46.254a136.025,136.025,0,0,0-105-132.516L181.156,403.583c-.058,0-.108,0-.155,0a1.057,1.057,0,0,1-.134-.013.824.824,0,0,1-.134-.034,1.289,1.289,0,0,1-.155-.067,136.947,136.947,0,0,1-37.644-14.411,89.638,89.638,0,0,1-26.663-22.823,68.062,68.062,0,0,1-13.242-30.021c-1.906-11.072-1.169-23.141,2.618-36.006A69.228,69.228,0,0,0,116.022,319.7a83.247,83.247,0,0,0,16.424,16.252A109.544,109.544,0,0,0,154.2,348.582a145.349,145.349,0,0,0,26.375,8.631,1.289,1.289,0,0,0,.155.067.827.827,0,0,0,.134.034,1.062,1.062,0,0,0,.134.013c.047,0,.1,0,.155,0L1752.5,717.875a136.2,136.2,0,0,1,105,132.632Z" fill="#fff"/>
            </g>
            <g id="Group_75" data-name="Group 75" transform="translate(392.258 833.079)" opacity="0.55">
              <g id="Group_73" data-name="Group 73">
                <path id="Path_144" data-name="Path 144" d="M7.532.929q-.694,1.561-1.3,3.1T5.074,7.1Q4.532,8.63,4.052,10.149t-.914,3.037c-.087-.289-.173-.571-.26-.849s-.174-.553-.26-.828-.173-.549-.26-.827-.174-.56-.26-.849Q2.7,8.705,3.352,7.58T4.684,5.338q.683-1.117,1.4-2.221T7.532.929Z" fill="#fff"/>
              </g>
              <g id="Group_74" data-name="Group 74">
                <g id="Path_145" data-name="Path 145" fill="none" stroke-miterlimit="10">
                  <path d="M7.532.929q-.694,1.561-1.3,3.1T5.074,7.1Q4.532,8.63,4.052,10.149t-.914,3.037c-.087-.289-.173-.571-.26-.849s-.174-.553-.26-.828-.173-.549-.26-.827-.174-.56-.26-.849Q2.7,8.705,3.352,7.58T4.684,5.338q.683-1.117,1.4-2.221T7.532.929Z" stroke="none"/>
                  <path d="M 3.13744330406189 13.18638038635254 C 3.050633192062378 12.89729499816895 2.963964223861694 12.61540985107422 2.877295255661011 12.33719444274902 C 2.790485143661499 12.05897808074951 2.703675031661987 11.78429126739502 2.617006301879883 11.50960445404053 C 2.530337333679199 11.23491764068604 2.443668365478516 10.96037197113037 2.356999397277832 10.68215656280518 C 2.27018928527832 10.40394115447998 2.183379411697388 10.12205505371094 2.096710443496704 9.83297061920166 C 2.501400709152222 9.081321716308594 2.920488595962524 8.329673767089844 3.352421760559082 7.579860687255859 C 3.784213542938232 6.830188751220703 4.22870922088623 6.082210540771484 4.684073925018311 5.337760925292969 C 5.139438629150391 4.593311786651611 5.605531215667725 3.852532386779785 6.080657482147217 3.117116928100586 C 6.555925369262695 2.381842613220215 7.040226459503174 1.651932239532471 7.531585693359375 0.9292207360267639 C 7.069022178649902 1.969953536987305 6.635395050048828 3.00334644317627 6.227035045623779 4.031375408172607 C 5.818674564361572 5.059404373168945 5.435581207275391 6.082069396972656 5.074225425720215 7.101064205169678 C 4.712869644165039 8.120200157165527 4.373251914978027 9.135666847229004 4.051701545715332 10.14915657043457 C 3.730151414871216 11.16278743743896 3.426527738571167 12.17458438873291 3.13744330406189 13.18638038635254 Z M 3.13744330406189 13.18638038635254 C 3.426527738571167 12.17458438873291 3.730151414871216 11.16278743743896 4.051701545715332 10.14915657043457 C 4.373251914978027 9.135666847229004 4.712869644165039 8.120200157165527 5.074225425720215 7.101064205169678 C 5.435581207275391 6.082069396972656 5.818674564361572 5.059404373168945 6.227035045623779 4.031375408172607 C 6.635395050048828 3.00334644317627 7.069022178649902 1.969953536987305 7.531585693359375 0.9292207360267639 C 7.040226459503174 1.651932239532471 6.555925369262695 2.381842613220215 6.080657482147217 3.117116928100586 C 5.605531215667725 3.852532386779785 5.139438629150391 4.593311786651611 4.684073925018311 5.337760925292969 C 4.22870922088623 6.082210540771484 3.784213542938232 6.830188751220703 3.352421760559082 7.579860687255859 C 2.920488595962524 8.329673767089844 2.501400709152222 9.081321716308594 2.096710443496704 9.83297061920166 C 2.183379411697388 10.12205505371094 2.27018928527832 10.40394115447998 2.356999397277832 10.68215656280518 C 2.443668365478516 10.96037197113037 2.530337333679199 11.23491764068604 2.617006301879883 11.50960445404053 C 2.703675031661987 11.78429126739502 2.790485143661499 12.05897808074951 2.877295255661011 12.33719444274902 C 2.963964223861694 12.61540985107422 3.050633192062378 12.89729499816895 3.13744330406189 13.18638038635254 Z" stroke="none" fill="#66142e"/>
                </g>
              </g>
            </g>
            <g id="Group_80" data-name="Group 80" transform="translate(234.06 482.32)">
              <g id="Group_77" data-name="Group 77" transform="translate(27.469 7.933)">
                <path id="Path_147" data-name="Path 147" d="M1986.783,816.12a134.608,134.608,0,0,0-2.627-26.547,131.527,131.527,0,0,0-20.3-48.237,134.972,134.972,0,0,0-17.2-20.5,132.683,132.683,0,0,0-62.674-34.459L238.283,323.057H1988.4a139.572,139.572,0,0,1,31.129,3.5,137.987,137.987,0,0,1,55.233,26.6,140.992,140.992,0,0,1,22.218,22.167,139.035,139.035,0,0,1,13.142,19.5,136.166,136.166,0,0,1,15.314,43.735,142.169,142.169,0,0,1,1.955,23.6V1577.453q0,5.811-.475,11.552t-1.418,11.4q-.943,5.659-2.351,11.228t-3.272,11.032a139.083,139.083,0,0,1-31.409,51.37,138.1,138.1,0,0,1-50.228,33.158q-5.811,2.211-11.784,3.9t-12.066,2.849q-6.092,1.16-12.282,1.787t-12.434.714h-2.891Z" fill="#c59b4c"/>
              </g>
              <g id="Group_79" data-name="Group 79">
                <g id="Group_78" data-name="Group 78">
                  <path id="Path_148" data-name="Path 148" d="M2015.871,333.88a136.527,136.527,0,0,1,31.306,3.614,135.407,135.407,0,0,1,53.983,26.437,137.6,137.6,0,0,1,21.094,21.175,134.586,134.586,0,0,1,27.806,61.418,137.355,137.355,0,0,1,2.027,23.573V1585.385q0,5.811-.474,11.505t-1.406,11.245q-.932,5.55-2.316,10.942t-3.205,10.6a135.985,135.985,0,0,1-30.845,50.286,136.125,136.125,0,0,1-49.058,32.508q-5.55,2.124-11.328,3.767t-11.74,2.781q-5.962,1.138-12.087,1.762t-12.369.71V824.168a135.6,135.6,0,0,0-10.927-53.365,136.015,136.015,0,0,0-59.219-65.738,134.695,134.695,0,0,0-34.849-13.414L292.348,334H2015.871m0-5.9H239.272l51.8,11.448L1910.991,697.2a130.275,130.275,0,0,1,61.17,33.649,131.732,131.732,0,0,1,16.808,20.026,128.348,128.348,0,0,1,19.827,47.164,132.241,132.241,0,0,1,2.564,26.01v903.216l5.9-.116q6.417-.087,12.743-.715t12.537-1.8q6.212-1.171,12.3-2.884t12.028-3.968a141.2,141.2,0,0,0,83.256-86.263q1.908-5.55,3.357-11.225t2.425-11.453q.976-5.778,1.471-11.648t.495-11.811V470.1a144.3,144.3,0,0,0-2-24.036,138.853,138.853,0,0,0-15.661-44.6,146.323,146.323,0,0,0-36.139-42.627,140.544,140.544,0,0,0-56.4-27.167,142.808,142.808,0,0,0-31.8-3.567Z" fill="#66142e"/>
                </g>
              </g>
            </g>
            <g id="Group_88" data-name="Group 88" transform="translate(60.389 369.278)">
              <g id="Group_85" data-name="Group 85">
                <path id="Path_153" data-name="Path 153" d="M1989.5,2279.141q-8.065,0-16.3-.5t-16.588-1.483q-8.358-.987-16.827-2.459t-17.011-3.424l1.272-5.666q3.339.694,6.7,1.214t6.73.867q3.372.347,6.752.52t6.763.173a131.967,131.967,0,0,0,51.706-10.49,133.37,133.37,0,0,0,81.273-122.835V1027.173a132.635,132.635,0,0,0-.9-15.421,134.262,134.262,0,0,0-7.1-30.061,130.374,130.374,0,0,0-6.107-14.185,134.1,134.1,0,0,0-15.939-24.641,132.692,132.692,0,0,0-45.1-35.622,134.629,134.629,0,0,0-27.647-9.811L409.128,536.654a150.442,150.442,0,0,1-24.377-7.82,117.569,117.569,0,0,1-20.6-11.116,92.068,92.068,0,0,1-16.355-14.107,75.856,75.856,0,0,1-11.628-16.8,69.372,69.372,0,0,1-5.746-15.934,73.522,73.522,0,0,1-1.8-17.094,85.88,85.88,0,0,1,2.147-17.983,106.61,106.61,0,0,1,6.092-18.6,134.971,134.971,0,0,1,21.6-25.177,132.468,132.468,0,0,1,89.289-34.49H2280.2A139.022,139.022,0,0,1,2419.307,496.53v1115.4c.491,36.627-2.956,66.677-10.3,91.595s-18.57,44.7-33.646,60.8-34,28.5-56.715,38.66-49.235,18.073-79.5,25.184l-1.734-5.55A132.406,132.406,0,0,0,2303.142,1768a134.125,134.125,0,0,0,12.441-26.438q1.822-5.2,3.187-10.53t2.277-10.747q.91-5.42,1.366-10.92t.456-11.05V583.024q0-4.553-.3-9.057t-.911-8.938q-.607-4.434-1.518-8.786t-2.125-8.6l-.116-.347v-.116a131.986,131.986,0,0,0-18.4-39.41,133.505,133.505,0,0,0-109.957-57.954H492.5L2086.512,801.8a139.307,139.307,0,0,1,97.248,83.719q2.472,6.158,4.334,12.483t3.11,12.8q1.247,6.472,1.874,13.079t.627,13.329V2039.663a322.968,322.968,0,0,1-.766,53.426,254.6,254.6,0,0,1-9.438,48.158,208.937,208.937,0,0,1-17.895,42.26,185.536,185.536,0,0,1-26.133,35.734,179.908,179.908,0,0,1-30.329,25.9,185.946,185.946,0,0,1-35.467,18.753,208.228,208.228,0,0,1-40.064,11.4A246.822,246.822,0,0,1,1989.5,2279.141Z" fill="#eecd91"/>
              </g>
            </g>
            <g id="Group_91" data-name="Group 91" transform="translate(1959.594 2476.514)" opacity="0.55">
              <g id="Group_89" data-name="Group 89">
                <path id="Path_155" data-name="Path 155" d="M187.539,27.941V64.135a137.54,137.54,0,0,1-2.99,28.636,134.622,134.622,0,0,1-21.938,49.987A135.967,135.967,0,0,1,144.985,163a227.493,227.493,0,0,1-28.085,4.755,252.6,252.6,0,0,1-29.646,1.373,282.2,282.2,0,0,1-30.99-2.1,315.813,315.813,0,0,1-32.117-5.652A135.435,135.435,0,0,0,85.143,159.9a137.12,137.12,0,0,0,88.688-72.26A135.368,135.368,0,0,0,187.539,27.941Z" fill="#fff"/>
              </g>
              <g id="Group_90" data-name="Group 90">
                <g id="Path_156" data-name="Path 156" fill="none" stroke-miterlimit="10">
                  <path d="M187.539,27.941V64.135a137.54,137.54,0,0,1-2.99,28.636,134.622,134.622,0,0,1-21.938,49.987A135.967,135.967,0,0,1,144.985,163a227.493,227.493,0,0,1-28.085,4.755,252.6,252.6,0,0,1-29.646,1.373,282.2,282.2,0,0,1-30.99-2.1,315.813,315.813,0,0,1-32.117-5.652A135.435,135.435,0,0,0,85.143,159.9a137.12,137.12,0,0,0,88.688-72.26A135.368,135.368,0,0,0,187.539,27.941Z" stroke="none"/>
                  <path d="M 90.28727722167969 169.1475219726563 C 84.99821472167969 169.1478118896484 79.64704895019531 168.9888763427734 74.23828125 168.6690216064453 C 68.82980346679688 168.348876953125 63.36373519897461 167.8678283691406 57.84515380859375 167.2235870361328 C 52.32685470581055 166.5793609619141 46.75605010986328 165.7719573974609 41.13809585571289 164.7991180419922 C 35.52042388916016 163.8262786865234 29.85532569885254 162.6882934570313 24.14788055419922 161.3829040527344 C 26.45180702209473 161.851806640625 28.75206184387207 162.2597503662109 31.0472354888916 162.6078338623047 C 33.34269332885742 162.9559173583984 35.6330680847168 163.2441558837891 37.91694641113281 163.4739685058594 C 40.20082855224609 163.7037658691406 42.47793579101563 163.8748474121094 44.74685287475586 163.9883270263672 C 47.01577377319336 164.1020965576172 49.27622222900391 164.1582794189453 51.52707290649414 164.1582794189453 C 69.80885314941406 164.1585540771484 87.45035552978516 160.4521179199219 103.6294937133789 153.6902465820313 C 119.808349609375 146.9283905029297 134.5245666503906 137.1116485595703 146.9554901123047 124.8913269042969 C 159.3864135742188 112.671012878418 169.5323181152344 98.04711151123047 176.5702819824219 81.67148590087891 C 183.6082458496094 65.296142578125 187.5385589599609 47.16878509521484 187.5385589599609 27.94127082824707 L 187.5385589599609 64.13471984863281 C 187.5385589599609 73.99267578125 186.5050201416016 83.568603515625 184.54833984375 92.77046966552734 C 182.5916595458984 101.9723358154297 179.7118225097656 110.8001480102539 176.0186462402344 119.1621475219727 C 172.3254852294922 127.5238647460938 167.8192596435547 135.4194793701172 162.6103820800781 142.7569885253906 C 157.4014892578125 150.0941925048828 151.4896545410156 156.8730010986328 144.9852447509766 163.0016632080078 C 140.6741027832031 164.0176849365234 136.2960510253906 164.9097900390625 131.8547668457031 165.6762542724609 C 127.4134750366211 166.4427185058594 122.9089508056641 167.0841369628906 118.3451461791992 167.5982208251953 C 113.7816162109375 168.1123046875 109.1587982177734 168.4996337890625 104.4812240600586 168.7582244873047 C 99.80364227294922 169.0171051025391 95.07100677490234 169.1472473144531 90.28727722167969 169.1475219726563 Z M 90.28727722167969 169.1475219726563 C 95.07100677490234 169.1472473144531 99.80364227294922 169.0171051025391 104.4812240600586 168.7582244873047 C 109.1587982177734 168.4996337890625 113.7816162109375 168.1123046875 118.3451461791992 167.5982208251953 C 122.9089508056641 167.0841369628906 127.4134750366211 166.4427185058594 131.8547668457031 165.6762542724609 C 136.2960510253906 164.9097900390625 140.6741027832031 164.0176849365234 144.9852447509766 163.0016632080078 C 151.4896545410156 156.8730010986328 157.4014892578125 150.0941925048828 162.6103820800781 142.7569885253906 C 167.8192596435547 135.4194793701172 172.3254852294922 127.5238647460938 176.0186462402344 119.1621475219727 C 179.7118225097656 110.8001480102539 182.5916595458984 101.9723358154297 184.54833984375 92.77046966552734 C 186.5050201416016 83.568603515625 187.5385589599609 73.99267578125 187.5385589599609 64.13471984863281 L 187.5385589599609 27.94127082824707 C 187.5385589599609 47.16878509521484 183.6082458496094 65.296142578125 176.5702819824219 81.67148590087891 C 169.5323181152344 98.04711151123047 159.3864135742188 112.671012878418 146.9554901123047 124.8913269042969 C 134.5245666503906 137.1116485595703 119.808349609375 146.9283905029297 103.6294937133789 153.6902465820313 C 87.45035552978516 160.4521179199219 69.80885314941406 164.1585540771484 51.52707290649414 164.1582794189453 C 49.27622222900391 164.1582794189453 47.01577377319336 164.1020965576172 44.74685287475586 163.9883270263672 C 42.47793579101563 163.8748474121094 40.20082855224609 163.7037658691406 37.91694641113281 163.4739685058594 C 35.6330680847168 163.2441558837891 33.34269332885742 162.9559173583984 31.0472354888916 162.6078338623047 C 28.75206184387207 162.2597503662109 26.45180702209473 161.851806640625 24.14788055419922 161.3829040527344 C 29.85532569885254 162.6882934570313 35.52042388916016 163.8262786865234 41.13809585571289 164.7991180419922 C 46.75605010986328 165.7719573974609 52.32685470581055 166.5793609619141 57.84515380859375 167.2235870361328 C 63.36373519897461 167.8678283691406 68.82980346679688 168.348876953125 74.23828125 168.6690216064453 C 79.64704895019531 168.9888763427734 84.99821472167969 169.1478118896484 90.28727722167969 169.1475219726563 Z" stroke="none" fill="#66142e"/>
                </g>
              </g>
            </g>
            <g id="Group_94" data-name="Group 94" transform="translate(2244.281 2408.817)" opacity="0.55">
              <g id="Group_92" data-name="Group 92">
                <path id="Path_157" data-name="Path 157" d="M6.921.124q.347,5.247.524,10.405t.2,10.221q.022,5.063-.105,10.026T7.152,40.6c0-.376-.007-.744-.02-1.109S7.1,38.76,7.08,38.4s-.047-.723-.074-1.088-.056-.734-.085-1.109Z" fill="#fff"/>
              </g>
              <g id="Group_93" data-name="Group 93">
                <g id="Path_158" data-name="Path 158" fill="none" stroke-miterlimit="10">
                  <path d="M6.921.124q.347,5.247.524,10.405t.2,10.221q.022,5.063-.105,10.026T7.152,40.6c0-.376-.007-.744-.02-1.109S7.1,38.76,7.08,38.4s-.047-.723-.074-1.088-.056-.734-.085-1.109Z" stroke="none"/>
                  <path d="M 7.152303218841553 40.59577941894531 C 7.152303218841553 40.22002792358398 7.145245552062988 39.85161209106445 7.132541656494141 39.48658752441406 C 7.119837760925293 39.12155914306641 7.101487636566162 38.76020431518555 7.079750061035156 38.39884948730469 C 7.058294296264648 38.03749465942383 7.032886505126953 37.67613983154297 7.00578498840332 37.31111145019531 C 6.978683471679688 36.94608688354492 6.949887752532959 36.57738876342773 6.92109203338623 36.20163726806641 L 6.92109203338623 0.123933732509613 C 7.152303218841553 3.621744632720947 7.325923442840576 7.090760231018066 7.44505786895752 10.52900409698486 C 7.564192295074463 13.96724700927734 7.629405975341797 17.37500190734863 7.643803596496582 20.75000762939453 C 7.658201694488525 24.12529754638672 7.622066020965576 27.46783828735352 7.538784503936768 30.77593612670898 C 7.455785751342773 34.08403396606445 7.325923442840576 37.35797500610352 7.152303218841553 40.59577941894531 Z M 7.152303218841553 40.59577941894531 C 7.325923442840576 37.35797500610352 7.455785751342773 34.08403396606445 7.538784503936768 30.77593612670898 C 7.622066020965576 27.46783828735352 7.658201694488525 24.12529754638672 7.643803596496582 20.75000762939453 C 7.629405975341797 17.37500190734863 7.564192295074463 13.96724700927734 7.44505786895752 10.52900409698486 C 7.325923442840576 7.090760231018066 7.152303218841553 3.621744632720947 6.92109203338623 0.123933732509613 L 6.92109203338623 36.20163726806641 C 6.949887752532959 36.57738876342773 6.978683471679688 36.94608688354492 7.00578498840332 37.31111145019531 C 7.032886505126953 37.67613983154297 7.058294296264648 38.03749465942383 7.079750061035156 38.39884948730469 C 7.101487636566162 38.76020431518555 7.119837760925293 39.12155914306641 7.132541656494141 39.48658752441406 C 7.145245552062988 39.85161209106445 7.152303218841553 40.22002792358398 7.152303218841553 40.59577941894531 Z" stroke="none" fill="#66142e"/>
                </g>
              </g>
            </g>
            <g id="Group_97" data-name="Group 97" transform="translate(2276.995 2052.776)" opacity="0.55">
              <g id="Group_95" data-name="Group 95">
                <path id="Path_159" data-name="Path 159" d="M101.636,59.217q1.821-5.2,3.205-10.6t2.316-10.941q.932-5.551,1.406-11.246t.473-11.506V51.123q0,5.81-.49,11.506t-1.433,11.246q-.943,5.55-2.322,10.942t-3.157,10.6q-1.214,3.469-2.6,6.867T96.1,108.983q-1.55,3.306-3.261,6.51t-3.576,6.282q-7.5,2.992-15.479,5.715t-16.422,5.227q-8.445,2.5-17.354,4.815t-18.275,4.479a135.133,135.133,0,0,0,26.453-13.636A136.181,136.181,0,0,0,70.834,109.5,136.371,136.371,0,0,0,88.907,86.187,135.754,135.754,0,0,0,101.636,59.217Z" fill="#fff"/>
              </g>
              <g id="Group_96" data-name="Group 96">
                <g id="Path_160" data-name="Path 160" fill="none" stroke-miterlimit="10">
                  <path d="M101.636,59.217q1.821-5.2,3.205-10.6t2.316-10.941q.932-5.551,1.406-11.246t.473-11.506V51.123q0,5.81-.49,11.506t-1.433,11.246q-.943,5.55-2.322,10.942t-3.157,10.6q-1.214,3.469-2.6,6.867T96.1,108.983q-1.55,3.306-3.261,6.51t-3.576,6.282q-7.5,2.992-15.479,5.715t-16.422,5.227q-8.445,2.5-17.354,4.815t-18.275,4.479a135.133,135.133,0,0,0,26.453-13.636A136.181,136.181,0,0,0,70.834,109.5,136.371,136.371,0,0,0,88.907,86.187,135.754,135.754,0,0,0,101.636,59.217Z" stroke="none"/>
                  <path d="M 21.73329162597656 142.0111236572266 C 31.09974479675293 138.4266357421875 39.96001815795898 133.8374176025391 48.18622589111328 128.3753051757813 C 56.41243362426758 122.9134674072266 64.00457763671875 116.5787353515625 70.83419799804688 109.5035018920898 C 77.66382598876953 102.4282684326172 83.73093414306641 94.61197662353516 88.9073486328125 86.18701934814453 C 94.08377075195313 77.76178741455078 98.3695068359375 68.72789001464844 101.6361083984375 59.2171745300293 C 102.8503189086914 55.74816131591797 103.9197082519531 52.21393203735352 104.8411636352539 48.62211227416992 C 105.7626190185547 45.03029251098633 106.5361480712891 41.38088226318359 107.1575088500977 37.68065643310547 C 107.7788772583008 33.98014450073242 108.2486343383789 30.22938537597656 108.5631256103516 26.43515014648438 C 108.8776245117188 22.64091491699219 109.0365600585938 18.80320358276367 109.0365600585938 14.92935657501221 L 109.0365600585938 51.12280654907227 C 109.0365600585938 54.99637222290039 108.8702850341797 58.83408355712891 108.5470352172852 62.62831878662109 C 108.2237930297852 66.42255401611328 107.7430191040039 70.17331695556641 107.1143188476563 73.87382507324219 C 106.4853363037109 77.57405090332031 105.7084197998047 81.22373962402344 104.792610168457 84.81555938720703 C 103.8765106201172 88.40766143798828 102.8215255737305 91.94161224365234 101.6361083984375 95.41062927246094 C 100.8267288208008 97.72330474853516 99.95947265625 100.0142440795898 99.03632354736328 102.278076171875 C 98.11289215087891 104.5421981811523 97.13356018066406 106.778938293457 96.10031127929688 108.9832077026367 C 95.0667724609375 111.1874771118164 93.97903442382813 113.3592834472656 92.83907318115234 115.4929733276367 C 91.69882202148438 117.6266632080078 90.50634765625 119.722526550293 89.26334381103516 121.7751998901367 C 84.26223754882813 123.7697143554688 79.10190582275391 125.6705017089844 73.78461456298828 127.4899826049805 C 68.46731567382813 129.3094635009766 62.99277877807617 131.0476379394531 57.36268615722656 132.7169342041016 C 51.73259353637695 134.38623046875 45.94751358032227 135.9872131347656 40.00857543945313 137.5322875976563 C 34.06963729858398 139.0770874023438 27.9774055480957 140.5657043457031 21.73329162597656 142.0111236572266 Z M 21.73329162597656 142.0111236572266 C 27.9774055480957 140.5657043457031 34.06963729858398 139.0770874023438 40.00857543945313 137.5322875976563 C 45.94751358032227 135.9872131347656 51.73259353637695 134.38623046875 57.36268615722656 132.7169342041016 C 62.99277877807617 131.0476379394531 68.46731567382813 129.3094635009766 73.78461456298828 127.4899826049805 C 79.10190582275391 125.6705017089844 84.26223754882813 123.7697143554688 89.26334381103516 121.7751998901367 C 90.50634765625 119.722526550293 91.69882202148438 117.6266632080078 92.83907318115234 115.4929733276367 C 93.97903442382813 113.3592834472656 95.0667724609375 111.1874771118164 96.10031127929688 108.9832077026367 C 97.13356018066406 106.778938293457 98.11289215087891 104.5421981811523 99.03632354736328 102.278076171875 C 99.95947265625 100.0142440795898 100.8267288208008 97.72330474853516 101.6361083984375 95.41062927246094 C 102.8215255737305 91.94161224365234 103.8765106201172 88.40766143798828 104.792610168457 84.81555938720703 C 105.7084197998047 81.22373962402344 106.4853363037109 77.57405090332031 107.1143188476563 73.87382507324219 C 107.7430191040039 70.17331695556641 108.2237930297852 66.42255401611328 108.5470352172852 62.62831878662109 C 108.8702850341797 58.83408355712891 109.0365600585938 54.99637222290039 109.0365600585938 51.12280654907227 L 109.0365600585938 14.92935657501221 C 109.0365600585938 18.80320358276367 108.8776245117188 22.64091491699219 108.5631256103516 26.43515014648438 C 108.2486343383789 30.22938537597656 107.7788772583008 33.98014450073242 107.1575088500977 37.68065643310547 C 106.5361480712891 41.38088226318359 105.7626190185547 45.03029251098633 104.8411636352539 48.62211227416992 C 103.9197082519531 52.21393203735352 102.8503189086914 55.74816131591797 101.6361083984375 59.2171745300293 C 98.3695068359375 68.72789001464844 94.08377075195313 77.76178741455078 88.9073486328125 86.18701934814453 C 83.73093414306641 94.61197662353516 77.66382598876953 102.4282684326172 70.83419799804688 109.5035018920898 C 64.00457763671875 116.5787353515625 56.41243362426758 122.9134674072266 48.18622589111328 128.3753051757813 C 39.96001815795898 133.8374176025391 31.09974479675293 138.4266357421875 21.73329162597656 142.0111236572266 Z" stroke="none" fill="#66142e"/>
                </g>
              </g>
            </g>
            <g id="Group_116" data-name="Group 116" transform="translate(2062.373 782.234)" opacity="0.3">
              <path id="Path_176" data-name="Path 176" d="M414.315,98.606V1199.093c.491,36.8-3.151,66.844-10.7,91.633s-19,44.324-34.137,60.108-33.946,27.817-56.209,37.6-47.977,17.323-76.914,24.117a136.1,136.1,0,0,0,79.9-82.794q1.821-5.2,3.205-10.6t2.316-10.941q.932-5.551,1.406-11.245t.473-11.506V170.067q0-4.683-.322-9.3t-.951-9.146q-.628-4.531-1.557-8.972t-2.143-8.777v-.116c1.243-23.589,6.114-45.3,13.154-62.666S348.086,40.7,358,34.487s20.539-5.623,30.411,4.242S407.406,67.731,414.315,98.606Z" fill="#c7902a"/>
            </g>
            <g id="Group_208" data-name="Group 208" transform="translate(954.277 0)">
              <g id="Group_207" data-name="Group 207">
                <path id="Path_283" data-name="Path 283" d="M624.234,1327.827l131.537,2.743c65.287,1.317,127.742-12.9,184.8-39.711s108.712-66.224,152.4-115.3,79.411-107.811,104.6-173.276,39.839-137.659,41.388-213.647a630.272,630.272,0,0,0-30.16-207.662c-20.891-64.385-51.881-123.039-90.757-173.282S1032.4,315.62,979.975,284.882,869.445,234.5,807.89,228.63l-161.369-4.547Z" transform="translate(193.089 24.668)" fill="#5d5d5d"/>
                <path id="Path_322" data-name="Path 322" d="M199.272,712.961c1.539-76.216,16.221-148.558,41.453-214.116S301.74,374.51,345.482,325.427s95.442-88.476,152.509-115.268,119.5-40.984,184.709-39.667,127.018,18.017,182.957,47.091S971.664,288.1,1013.389,338.913s75.106,110.982,97.671,177.505,34.315,139.4,32.776,215.615-16.221,148.558-41.453,214.116-61.015,124.334-104.757,173.418-95.442,88.476-152.509,115.268-119.5,40.984-184.709,39.667-127.018-18.017-182.957-47.091-106.007-70.521-147.732-121.331S254.613,995.1,232.048,928.576,197.733,789.177,199.272,712.961Z" transform="translate(156.768 78.097)" fill="#393939"/>
                <path id="Path_290" data-name="Path 290" d="M1203.542,1070.216q-10.369-.146-20.812-.726t-20.866-1.537q-10.425-.956-20.785-2.259t-20.567-2.893a433.672,433.672,0,0,1-60.889,70.959,383.577,383.577,0,0,1-72.57,53.587,341.992,341.992,0,0,1-81.783,33.459,322.746,322.746,0,0,1-88.527,10.574c-53.023-1.1-103.318-15.163-148.854-39.633S581.572,1132.4,547.58,1089.656,486.384,996.3,468,940.374a558.949,558.949,0,0,1-2.916-332.54,496.7,496.7,0,0,1,60.954-129.518c25.71-38.595,56.408-72.141,90.889-99.226s72.742-47.711,113.578-60.464q6.508-13.6,13.583-26.834t14.81-26.037q7.734-12.8,16.172-25.152t17.672-24.178C733,222.072,676.207,240.8,624.524,270.183S526.27,339.6,486.988,387.851s-71.274,104.73-93.8,167A629.753,629.753,0,0,0,356.17,756.591c-1.485,76.288,10.286,149.17,32.852,215.675s55.925,126.634,97.617,177.414S578.353,1241.892,634.246,1271s117.655,45.9,182.823,47.4A406.663,406.663,0,0,0,939,1302.542a433.035,433.035,0,0,0,110.861-49.988,487.234,487.234,0,0,0,95.588-79.284,545.785,545.785,0,0,0,76.113-103.752c-1.5.319-3.014.562-4.533.738s-3.043.284-4.56.333-3.027.036-4.519-.028S1204.986,1070.379,1203.542,1070.216Z" transform="translate(0 32.892)" fill="#333"/>
                <path id="Path_291" data-name="Path 291" d="M732.793,689.055a527.046,527.046,0,0,1-145.657-76.037,530.552,530.552,0,0,1-114.31-115.654,524.977,524.977,0,0,1-99.532-314.608q.227-11.092.827-22.135t1.617-22.009q1.017-10.966,2.475-21.839t3.4-21.625a319.471,319.471,0,0,0-62.293,56.112,367.557,367.557,0,0,0-48.632,73.122,406.525,406.525,0,0,0-32.017,86.625,442.733,442.733,0,0,0,8.807,240.269c14.586,44.3,36.142,84.365,63.07,118.194s59.227,61.425,95.3,80.8a260.332,260.332,0,0,0,117.943,31.459A248.758,248.758,0,0,0,582.8,776.8a257.073,257.073,0,0,0,55.151-18.086,283.2,283.2,0,0,0,50.323-29.748A319.685,319.685,0,0,0,732.793,689.055Z" transform="translate(307.662 386.687)" fill="#585858"/>
              </g>
              <path id="Path_293" data-name="Path 293" d="M301.18,665.024a529.482,529.482,0,0,0,25.907,174.9c17.749,53.98,43.971,102.82,76.743,144.061s72.093,74.883,116.041,98.466,92.523,37.107,143.8,38.112c51.161,1.187,100.158-10.207,144.944-31.827s85.362-53.467,119.683-93.188,62.386-87.314,82.151-140.427a535.643,535.643,0,0,0,6.441-348.441c-17.749-53.98-43.971-102.82-76.743-144.061s-72.093-74.883-116.041-98.466-92.523-37.107-143.8-38.112c-51.161-1.187-100.158,10.206-144.944,31.827S450,311.333,415.68,351.054s-62.386,87.314-82.151,140.427A524.926,524.926,0,0,0,301.18,665.024Zm717.093,16.125a472.788,472.788,0,0,1-29.119,156.263c-17.789,47.808-43.05,90.634-73.947,126.377s-67.433,64.4-107.771,83.871a284.576,284.576,0,0,1-130.59,28.746c-46.11-1.007-89.832-13.252-129.4-34.525s-74.99-51.573-104.5-88.692-53.1-81.054-69.018-129.6a484.868,484.868,0,0,1,6.152-313.507c17.789-47.808,43.05-90.634,73.948-126.377s67.433-64.4,107.771-83.871a284.574,284.574,0,0,1,130.59-28.746c46.11,1.007,89.786,13.223,129.3,34.459s74.865,51.492,104.326,88.581S979.047,475.141,995,523.706A476.915,476.915,0,0,1,1018.273,681.149Z" transform="translate(154.079 127.833)" fill="#858585"/>
            </g>
            <g id="Group_224" data-name="Group 224" transform="translate(70.411 463.227)">
              <g id="Group_85-2" data-name="Group 85">
                <g id="Group_64" data-name="Group 64" transform="translate(0)">
                  <g id="Group_62" data-name="Group 62">
                    <path id="Path_136" data-name="Path 136" d="M2004.373,2192.988q-3.612,0-7.241-.177t-7.253-.54q-3.623-.362-7.23-.913t-7.174-1.3c-.327-.058-.669-.124-1.02-.2s-.712-.148-1.076-.229-.732-.165-1.1-.251-.73-.174-1.087-.262L438.3,1833.99a151.374,151.374,0,0,1-68.984-36.488,148.257,148.257,0,0,1-17.591-19.481l-.951-1.171a149.766,149.766,0,0,1-12.58-20.081,145.965,145.965,0,0,1-14.679-44.333,148.965,148.965,0,0,1-1.877-23.638V386.872a133.1,133.1,0,0,1,22.952-74.7l5.233,2.81a102.508,102.508,0,0,0-5.883,17.639,80.074,80.074,0,0,0-2.115,16.947,67.229,67.229,0,0,0,1.676,16.047,63.439,63.439,0,0,0,5.489,14.938,70.936,70.936,0,0,0,11.232,15.89,88.631,88.631,0,0,0,15.926,13.4,116.3,116.3,0,0,0,20.185,10.609,152.24,152.24,0,0,0,24.009,7.525l1616.494,365.2a144.676,144.676,0,0,1,44.618,18.508,141.322,141.322,0,0,1,34.851,31.022,139.139,139.139,0,0,1,30.771,87.466V2052.012a138.8,138.8,0,0,1-11.227,54.827,141.356,141.356,0,0,1-30.6,44.816,143.134,143.134,0,0,1-100.875,41.333Z" fill="#e5bc70"/>
                  </g>
                </g>
              </g>
            </g>
          </g>
        </g>
      </g>
    </g>
    <path id="Path_328" data-name="Path 328" d="M44.236,8.54l6.759,29.89L0,28.669V0Z" transform="translate(8071.14 -3371.349)" fill="#bb8f3e"/>
    <path id="Path_327" data-name="Path 327" d="M0,0,6.389,30.02,33.408,59.012l7.054-15.825Z" transform="translate(7675.628 -3707.666)" fill="#bb8f3e"/>
    <path id="Path_326" data-name="Path 326" d="M43.9,0l5.637,29.244L13.841,51.072,0,26.075Z" transform="translate(8095.149 -3681.629)" fill="#bb8f3e"/>
    <path id="Path_323" data-name="Path 323" d="M1365.742,2124.7a50.76,50.76,0,0,0,9.25-3.235,83.416,83.416,0,0,0,21.12-13.662,101.068,101.068,0,0,0,23.046-30.023c6.9-13.394,12.459-30.5,15.026-52.319.428,0,12.561-67.4,30.521-168.51s41.744-235.913,65.475-370.72,47.41-269.615,65.155-370.72S1624.894,947,1624.894,947a124.053,124.053,0,0,0,1.439-16.74,166.681,166.681,0,0,0-3.743-40.184,134.019,134.019,0,0,0-21.017-48.575c-11.229-15.917-27.351-30.724-50.382-41.911-.329-.987-93.572-40.892-233.248-100.193s-325.79-138-511.862-216.574S433.978,325.8,294.465,266.99,61.957,169.019,61.957,169.019a104.523,104.523,0,0,1-12.673-6.283,121.365,121.365,0,0,1-25.825-19.6c-8.77-8.876-16.683-20.158-20.692-34.033S-1.349,78.763,5.494,59.514C16.187,41.121,28.914,28.288,41.987,19.386A110.707,110.707,0,0,1,80.563,2.837,121.319,121.319,0,0,1,111.121.084a84.5,84.5,0,0,1,12.432,1.257l15.4,83.839L163.9,100.461,1674.9,724.57a104.679,104.679,0,0,1,13.506,7.76,147.452,147.452,0,0,1,28.711,24.917,131.93,131.93,0,0,1,26.2,44.531c6.349,18.385,9.33,40.449,5.989,66.6s-17.064,107.975-35.773,216-42.4,242.251-65.669,373.208-46.127,258.645-63.164,353.594-28.256,157.158-28.256,157.158-.618,6.629-2.744,17.358a281.471,281.471,0,0,1-11.789,41.959,232.3,232.3,0,0,1-26.166,51.391c-11.712,17.016-26.708,33.076-45.878,45.651s-35.263,18.863-48.62,21.22-23.977.786-32.2-2.357a48.855,48.855,0,0,1-17.823-11.789A37.267,37.267,0,0,1,1365.742,2124.7Z" transform="translate(6511.91 -3847.619)" fill="#eecd91"/>
    <path id="Path_329" data-name="Path 329" d="M0,0l5.93,29.526L35.916,34.8,38.83,7.11Z" transform="translate(7627.719 -3449.048)" fill="#bb8f3e"/>
    <path id="Path_325" data-name="Path 325" d="M53.923.013,160.415,8.042l92.493,89.5,124.629-78L516.826,25.9,310.373,155.269,493.6,345.058,336.4,317.9l-98.26-115.012L117.116,279.644,5.945,258.751l174.254-117Z" transform="translate(7627.719 -3678.16)" fill="#bb8f3e"/>
    <path id="Path_324" data-name="Path 324" d="M53.923.013,160.415,8.042l92.493,89.5,124.629-78L516.826,25.9,310.373,155.269,493.6,345.058,336.4,317.9l-98.26-115.012L117.116,279.644,5.945,258.751l174.254-117Z" transform="translate(7621.934 -3707.437)" fill="#e7be6f"/>
  </g>
</svg>
