<svg id="_26919_Converted_" data-name="26919 [Converted]" xmlns="http://www.w3.org/2000/svg" width="487.467" height="292.591" viewBox="0 0 487.467 292.591">
  <g id="Group_198" data-name="Group 198" transform="translate(0 0)">
    <path id="Path_276" data-name="Path 276" d="M182.885,91.992c-3.312.69-4,1.38-4.692,4.692-.69-3.312-1.38-4-4.693-4.692,3.312-.69,4-1.38,4.693-4.692C178.883,90.612,179.573,91.164,182.885,91.992Z" transform="translate(11.577 -1.179)" fill="#ffda22"/>
    <path id="Path_277" data-name="Path 277" d="M53.753,88.877c-5.107,1.1-6.073,2.07-7.177,7.177-1.1-5.107-2.07-6.073-7.177-7.177,5.107-1.1,6.073-2.07,7.177-7.177C47.681,86.807,48.647,87.773,53.753,88.877Z" transform="translate(-39.4 -3.308)" fill="#ffda22"/>
    <path id="Path_278" data-name="Path 278" d="M337.162,233.181c-5.935,1.242-7.039,2.346-8.281,8.281-1.242-5.935-2.346-7.039-8.281-8.281,5.935-1.242,7.039-2.346,8.281-8.281C330.123,230.834,331.227,231.939,337.162,233.181Z" transform="translate(67.496 51.129)" fill="#ffda22"/>
    <path id="Path_279" data-name="Path 279" d="M396.173,76.587c-4.692.966-5.521,1.794-6.487,6.487-.966-4.692-1.794-5.521-6.487-6.487,4.693-.966,5.521-1.794,6.487-6.487C390.653,74.792,391.481,75.621,396.173,76.587Z" transform="translate(91.294 -7.718)" fill="#ffda22"/>
    <path id="Path_280" data-name="Path 280" d="M93.7,30.2c-2.07.414-2.346.828-2.9,2.9-.414-2.07-.828-2.346-2.9-2.9,2.07-.414,2.346-.828,2.9-2.9C91.212,29.508,91.626,29.784,93.7,30.2Z" transform="translate(-20.963 -23.988)" fill="#ffda22"/>
    <path id="Path_281" data-name="Path 281" d="M293.685,29.592c-3.312.69-4,1.38-4.692,4.692-.69-3.312-1.38-4-4.693-4.692,3.312-.69,4-1.38,4.693-4.692C289.683,28.35,290.235,28.9,293.685,29.592Z" transform="translate(53.697 -24.9)" fill="#ffda22"/>
    <path id="Path_282" data-name="Path 282" d="M335.006,142.653c-5.383,1.1-6.349,2.07-7.453,7.453-1.1-5.383-2.07-6.349-7.453-7.453,5.383-1.1,6.349-2.07,7.453-7.453C328.657,140.444,329.623,141.411,335.006,142.653Z" transform="translate(67.306 17.03)" fill="#ffda22"/>
  </g>
</svg>
