<svg id="bottom" xmlns="http://www.w3.org/2000/svg" width="118.904" height="113.748" viewBox="0 0 118.904 113.748">
  <g id="Group_267" data-name="Group 267" transform="translate(0.006 0)">
    <path id="Path_462" data-name="Path 462" d="M87.636,294.617l21.6-23.581a5.212,5.212,0,0,0,1.412-4.236l-3.671-31.77a5.273,5.273,0,0,1,7.484-5.366l28.946,13.273a5.264,5.264,0,0,0,4.377,0l15.532-7.06,13.555-6.213a5.315,5.315,0,0,1,7.484,5.507l-3.671,31.77a4.189,4.189,0,0,0,.282,2.259,5.54,5.54,0,0,0,1.13,1.977l21.6,23.439a5.4,5.4,0,0,1-2.824,8.9l-31.205,6.354a5.1,5.1,0,0,0-3.53,2.542L160.072,323h0l-9.743,17.227a5.424,5.424,0,0,1-9.319,0l-11.72-20.757-3.954-7.06a5.1,5.1,0,0,0-3.53-2.542L90.6,303.513A5.344,5.344,0,0,1,87.636,294.617Z" transform="translate(-86.207 -229.125)" fill="#ffea8e"/>
  </g>
  <path id="Path_463" data-name="Path 463" d="M116,311.292l21.6-23.581a5.212,5.212,0,0,0,1.412-4.236l-3.671-31.77a5.273,5.273,0,0,1,7.484-5.366l28.946,13.273a5.264,5.264,0,0,0,4.377,0l15.532-7.06c1.977,6.778,3.248,13.838-1.694,20.051-6.636,8.331-18.78,5.93-25.275,14.967-5.648,7.907-1.271,21.321-2.118,30.641A44.719,44.719,0,0,1,157.509,336l-3.954-7.06a5.1,5.1,0,0,0-3.53-2.542l-31.205-6.354A5.225,5.225,0,0,1,116,311.292Z" transform="translate(-114.561 -245.8)" fill="#ffd002" opacity="0.5"/>
  <path id="Path_464" data-name="Path 464" d="M102.308,294.617l21.6-23.581a5.212,5.212,0,0,0,1.412-4.236l-3.671-31.77a5.273,5.273,0,0,1,7.484-5.366l28.946,13.273a5.264,5.264,0,0,0,4.377,0l15.532-7.06,13.555-6.213a5.315,5.315,0,0,1,7.484,5.507l-3.671,31.77a4.189,4.189,0,0,0,.282,2.259c-7.766,5.507-16.8,10.025-20.051,20.756-1.836,6.072,0,14.12-.141,20.474-.141,4.095-.424,8.331-.988,12.567h0L165,340.225a5.424,5.424,0,0,1-9.319,0l-11.72-20.757-3.954-7.06a5.1,5.1,0,0,0-3.53-2.542l-31.205-6.354A5.344,5.344,0,0,1,102.308,294.617Z" transform="translate(-100.872 -229.125)" fill="#ffd002"/>
  <g id="Group_268" data-name="Group 268" transform="translate(54.03 63.59)">
    <path id="Path_465" data-name="Path 465" d="M133.782,236.707c2.4-.141,4.377,1.977,3.954,3.954a18.543,18.543,0,0,1-1.412,4.518c-2.259,5.648-7.2,21.18-15.109,21.18-1.553,0-3.389-1.412-2.542-3.389a11.543,11.543,0,0,1,1.694-2.824,45.274,45.274,0,0,0,5.507-9.884c1.271-3.106,2.683-6.213,4.095-9.319a6.872,6.872,0,0,1,1.977-2.965A1.993,1.993,0,0,1,133.782,236.707Z" transform="translate(-118.459 -226.897)" fill="#fff"/>
    <path id="Path_466" data-name="Path 466" d="M114.378,263.029a2.577,2.577,0,0,1-1.977,1.977,9.141,9.141,0,0,1-1.836.565,60.928,60.928,0,0,1-11.155,1.694,7.765,7.765,0,0,1-3.106-.282,3.4,3.4,0,0,1-2.542-1.977,2.183,2.183,0,0,1,.424-2.824,4.1,4.1,0,0,1,2.118-1.271,88.545,88.545,0,0,1,13.555-2.683,4.093,4.093,0,0,1,3.53.847A3.441,3.441,0,0,1,114.378,263.029Z" transform="translate(-59.942 -258.161)" fill="#fff"/>
  </g>
</svg>
