<svg xmlns="http://www.w3.org/2000/svg" width="3641.471" height="3828.621" viewBox="0 0 3641.471 3828.621">
  <g id="coin" transform="translate(-11523.119 -8036.155)">
    <g id="Group_182" data-name="Group 182" transform="translate(11523.119 8036.155)">
      <g id="Group_180" data-name="Group 180" transform="translate(0 0)">
        <path id="Path_247" data-name="Path 247" d="M2221.258,117.4l287.7,229.14c448.095,356.439,358.985,1214.44-198.588,1914.589-529.567,664.505-1290.818,949.657-1749.1,672.143L202.285,2655.758Z" transform="translate(610.027 528.736)" fill="#5d5d5d"/>
        <path id="Path_264" data-name="Path 264" d="M1036.251,0C1608.556,0,2072.5,726.126,2072.5,1621.849S1608.556,3243.7,1036.251,3243.7,0,2517.571,0,1621.849,463.945,0,1036.251,0Z" transform="matrix(-0.782, -0.623, 0.623, -0.782, 1621.682, 3828.622)" fill="#333"/>
        <g id="Group_178" data-name="Group 178" transform="translate(522.638 488.759)">
          <path id="Path_254" data-name="Path 254" d="M2649.746,1625.611c-43.282-35.644-89.11-66.2-134.938-96.748,162.944-437.911,122.208-858-147.668-1069.318-381.9-300.428-1074.409-63.65-1547.964,527.021-315.7,394.63-455.733,847.817-399.721,1196.618-53.466,127.3-89.11,259.691-104.386,394.629-218.956-422.635-78.926-1107.508,381.9-1688C1254.541,189.669,2069.259-90.39,2517.354,266.049c333.526,267.33,369.169,812.172,134.938,1362.108C2654.838,1630.7,2652.292,1628.158,2649.746,1625.611Z" transform="translate(-213.798 -111.219)" fill="#393939"/>
          <path id="Path_255" data-name="Path 255" d="M228.588,1237.965c50.92-185.858,155.305-381.9,302.973-567.757C908.368,199.2,1435.389-7.027,1738.362,229.751c190.95,150.213,229.14,427.728,132.392,730.7C1325.911,698.214,663.953,802.6,228.588,1237.965Z" transform="translate(290.227 375.722)" fill="#585858"/>
        </g>
        <path id="Path_257" data-name="Path 257" d="M615.883,751.308C1069.069,183.55,1733.574-40.5,2100.2,247.2c364.077,287.7,292.79,980.208-160.4,1547.966S822.109,2586.971,455.485,2299.273C91.408,2009.03,162.7,1316.518,615.883,751.308Zm1273,1003.122c407.359-509.2,499.015-1112.6,170.582-1369.746-328.433-259.691-898.736-33.1-1308.641,476.1-407.359,509.2-499.015,1112.6-170.581,1369.746C911.218,2490.223,1481.521,2263.629,1888.88,1754.43Z" transform="translate(542.685 638.26)" fill="#858585"/>
      </g>
    </g>
    <g id="Group_187" data-name="Group 187" transform="translate(12569.136 9462.226)">
      <path id="Path_222" data-name="Path 222" d="M347.8,64.888c1.534.192,16.535,2.342,38.311,5.478C408.051,73.527,436.98,77.705,466,81.9c29.315,4.238,58.724,8.493,80.925,11.706l37.308,5.4,109.093,272.16L1113.7,178.257,1539.4,222.595,776.942,541.887l191.9,525.9-311.346-118L547.693,635.6,226.523,770.129,19.514,691.756l470.9-226.694Z" transform="translate(0 45.546)" fill="#bb8f3e"/>
      <path id="Path_221" data-name="Path 221" d="M356.244,74.134c1.571.184,16.942,2.266,39.256,5.3,22.488,3.061,52.137,7.109,81.886,11.174,30.054,4.107,60.208,8.231,82.975,11.345l38.264,5.236L709.74,382.869l432.629-198.621,438.218,42.369L795.041,555.738l195.383,533.014L671.141,970.364,559.483,652.106,229.95,790.211,18.3,711.824,501.259,479.371Z" transform="translate(55.016 -0.002)" fill="#e5bc70"/>
      <path id="Path_223" data-name="Path 223" d="M208.182,69,127.93,95.324.133,45.594,32.276,3.348Z" transform="translate(837.672 1019.8)" fill="#bb8f3e"/>
      <path id="Path_224" data-name="Path 224" d="M129.648,190.353,63.927,212.83.575,40.964,64.553,3.771Z" transform="translate(347.175 71.004)" fill="#bb8f3e"/>
    </g>
  </g>
</svg>
