<svg id="top-left" xmlns="http://www.w3.org/2000/svg" width="118.905" height="113.748" viewBox="0 0 118.905 113.748">
  <g id="Group_267" data-name="Group 267">
    <path id="Path_462" data-name="Path 462" d="M203.676,277.38l-21.6,23.581a5.212,5.212,0,0,0-1.412,4.236l3.671,31.77a5.273,5.273,0,0,1-7.484,5.366L147.9,329.06a5.264,5.264,0,0,0-4.377,0l-15.532,7.06-13.555,6.213a5.315,5.315,0,0,1-7.484-5.507l3.671-31.77a4.188,4.188,0,0,0-.282-2.259,5.54,5.54,0,0,0-1.13-1.977l-21.6-23.439a5.4,5.4,0,0,1,2.824-8.9l31.205-6.354a5.1,5.1,0,0,0,3.53-2.542L131.24,249h0l9.743-17.227a5.424,5.424,0,0,1,9.319,0l11.72,20.757,3.954,7.06a5.1,5.1,0,0,0,3.53,2.542l31.205,6.354A5.344,5.344,0,0,1,203.676,277.38Z" transform="translate(-86.207 -229.125)" fill="#ffea8e"/>
  </g>
  <path id="Path_463" data-name="Path 463" d="M191.994,270.51l-21.6,23.581a5.212,5.212,0,0,0-1.412,4.236l3.671,31.77a5.273,5.273,0,0,1-7.484,5.366L136.22,322.19a5.264,5.264,0,0,0-4.377,0l-15.532,7.06c-1.977-6.778-3.248-13.838,1.694-20.051,6.636-8.331,18.78-5.93,25.275-14.967,5.648-7.907,1.271-21.321,2.118-30.641a44.718,44.718,0,0,1,5.083-17.791l3.954,7.06a5.1,5.1,0,0,0,3.53,2.542l31.205,6.354A5.225,5.225,0,0,1,191.994,270.51Z" transform="translate(-74.525 -222.255)" fill="#ffd002" opacity="0.5"/>
  <path id="Path_464" data-name="Path 464" d="M197.631,277.38l-21.6,23.581a5.212,5.212,0,0,0-1.412,4.236l3.671,31.77a5.273,5.273,0,0,1-7.484,5.366L141.857,329.06a5.264,5.264,0,0,0-4.377,0l-15.532,7.06-13.555,6.213a5.315,5.315,0,0,1-7.484-5.507l3.671-31.77a4.189,4.189,0,0,0-.282-2.259c7.766-5.507,16.8-10.025,20.051-20.757,1.836-6.072,0-14.12.141-20.474.141-4.095.424-8.331.988-12.567h0l9.46-17.227a5.424,5.424,0,0,1,9.319,0l11.72,20.757,3.954,7.06a5.1,5.1,0,0,0,3.53,2.542l31.205,6.354A5.344,5.344,0,0,1,197.631,277.38Z" transform="translate(-80.162 -229.125)" fill="#ffd002"/>
  <g id="Group_268" data-name="Group 268" transform="translate(10.19 10.696)">
    <path id="Path_465" data-name="Path 465" d="M122.47,266.352c-2.4.141-4.377-1.977-3.954-3.954a18.544,18.544,0,0,1,1.412-4.518c2.259-5.648,7.2-21.18,15.109-21.18,1.553,0,3.389,1.412,2.542,3.389a11.542,11.542,0,0,1-1.694,2.824,45.277,45.277,0,0,0-5.507,9.884c-1.271,3.106-2.683,6.213-4.095,9.319a6.872,6.872,0,0,1-1.977,2.965A1.993,1.993,0,0,1,122.47,266.352Z" transform="translate(-83.109 -236.7)" fill="#fff"/>
    <path id="Path_466" data-name="Path 466" d="M93.673,262.452a2.577,2.577,0,0,1,1.977-1.977,9.137,9.137,0,0,1,1.836-.565,60.92,60.92,0,0,1,11.155-1.694,7.765,7.765,0,0,1,3.106.282,3.4,3.4,0,0,1,2.542,1.977,2.183,2.183,0,0,1-.424,2.824,4.094,4.094,0,0,1-2.118,1.271,88.523,88.523,0,0,1-13.555,2.683,4.093,4.093,0,0,1-3.53-.847A3.441,3.441,0,0,1,93.673,262.452Z" transform="translate(-93.424 -227.858)" fill="#fff"/>
  </g>
</svg>
