<svg xmlns="http://www.w3.org/2000/svg" width="313.164" height="322.018" viewBox="0 0 313.164 322.018">
  <g id="BNB" transform="translate(-13016.672 -6447.457)">
    <g id="Group_269" data-name="Group 269" transform="translate(13010.861 6440.666)">
      <g id="Group_44" data-name="Group 44" transform="translate(16.743 335.6) rotate(-93)">
        <g id="Group_43" data-name="Group 43" transform="translate(0 0)">
          <path id="Path_97" data-name="Path 97" d="M0,129.622l15.431,24.883C46.1,203.889,117.664,214.687,175.145,179,230.5,144.668,252.88,79.471,227.418,30.67L208.707,0Z" transform="translate(55.501 89.449)" fill="#f8e64f"/>
          <path id="Path_265" data-name="Path 265" d="M122.871,0c67.862,0,122.871,47.066,122.871,105.125S190.731,210.25,122.871,210.25,0,163.184,0,105.125,55.011,0,122.871,0Z" transform="translate(0 129.752) rotate(-31.848)" fill="#dcc81b"/>
          <path id="Path_104" data-name="Path 104" d="M106.929,216.876a133.183,133.183,0,0,1-8.682-16.4c-28.356-.772-54.009-13.31-68.284-36.263C5.083,124.095,24.179,67,72.595,36.909c40.121-25.076,87.958-23.725,117.277.579a123.847,123.847,0,0,1,26.727-.071C183.423-4.44,116.767-12.856,62.757,20.709,5.083,56.584-16.713,125.449,13.763,174.826c19.674,31.827,56.517,47.644,95.481,45.329A12.675,12.675,0,0,1,106.929,216.876Z" transform="translate(41.931 44.053)" fill="#c9b821"/>
          <path id="Path_105" data-name="Path 105" d="M51.269,143.053A117.437,117.437,0,0,1,102.191,14.588a123.914,123.914,0,0,1,17.364-9.067C96.984-3.93,67.665-1.422,42.4,14.395,4.011,38.312-11.034,83.449,8.64,115.277,17.9,130.707,33.523,139.967,51.269,143.053Z" transform="translate(82.931 84.12)" fill="#c7b417"/>
        </g>
        <path id="Path_107" data-name="Path 107" d="M51.667,17.574C4.988,46.7-13.53,101.675,10.581,140.446,34.5,179.213,91.788,187.126,138.467,158s65.2-84.1,41.086-122.874C155.637-3.644,98.347-11.55,51.667,17.574Zm83.908,135.8c-42.051,26.233-93.552,19.1-115.156-15.814S15.4,53.07,57.457,27.03C99.5.8,151.005,7.93,172.609,42.843S177.62,127.136,135.575,153.37Z" transform="translate(64.402 66.088)" fill="#aaa"/>
      </g>
      <path id="Path_199" data-name="Path 199" d="M4344.018,8466.386l4.659-.986,14.844-25.679,26.438,21.02,5.093-1.408,10.618-17.553-5.2,1.083-47.615-37.4-25.089,48.009Z" transform="translate(-4214.568 -8305.911)" fill="#5b5b5b"/>
      <path id="Path_198" data-name="Path 198" d="M4327.75,8453.595l25.233-48.085,47.372,37.374-10.237,17.852-29.255-23.327-16.9,29.016Z" transform="translate(-4214.551 -8305.957)" fill="#747474"/>
      <path id="Path_200" data-name="Path 200" d="M4563.17,8405.51h6.924l45.853,36.379-5.225,1.008Z" transform="translate(-4424.866 -8305.957)" fill="#bababa"/>
      <path id="Path_202" data-name="Path 202" d="M4587.85,8931.215l16.6,13.753,5-2.333,9.919-16.17-4.417,1.833-16.92-14.086Z" transform="translate(-4446.911 -8760.401)" fill="#5b5b5b"/>
      <path id="Path_201" data-name="Path 201" d="M4597.926,8913.59l-10.077,17.119,16.578,13.651,10.51-16.685Z" transform="translate(-4446.911 -8759.845)" fill="#747474"/>
      <path id="Path_203" data-name="Path 203" d="M4703.793,8916.248l-16.66-13.513-4.779,1.209L4699.4,8918.1Z" transform="translate(-4531.339 -8750.146)" fill="#bababa"/>
      <path id="Path_205" data-name="Path 205" d="M5046.771,8887.27l4.325-2.02,11.419-18.057-4.1,2.048-18.036-14.576-11.687,18.05Z" transform="translate(-4840.739 -8707.204)" fill="#5b5b5b"/>
      <path id="Path_204" data-name="Path 204" d="M5040.43,8854.84l-11.668,18.087,18.087,14.5,11.668-18.086Z" transform="translate(-4840.801 -8707.365)" fill="#747474"/>
      <path id="Path_206" data-name="Path 206" d="M5160.343,8857.769l-17.982-13.667-4.159,1.161,18.044,14.519Z" transform="translate(-4938.574 -8697.772)" fill="#bababa"/>
      <path id="Path_207" data-name="Path 207" d="M4447.748,9145.646l-9.209,15.494,43.881,38.247,28.666-43.773-16.965-14.41-18.2,28.063Z" transform="translate(-4313.525 -8963.185)" fill="#747474"/>
      <path id="Path_208" data-name="Path 208" d="M4877.952,9255.712l4.478-2.462-28.018,42.828-5.064,3.463Z" transform="translate(-4680.522 -9063.283)" fill="#5b5b5b"/>
      <path id="Path_209" data-name="Path 209" d="M4530.815,9156.47l-4.874,2.887,28.081,23.528,2.886-4.423Z" transform="translate(-4391.605 -8976.823)" fill="#bababa"/>
      <path id="Path_210" data-name="Path 210" d="M4959.39,9119.048l3.983-2.708L4980.59,9131l-4.271,2.407Z" transform="translate(-4778.831 -8940.971)" fill="#bababa"/>
      <path id="Path_211" data-name="Path 211" d="M4200.9,8966.52l-8.591,15.771,15.067,13.015,8.719-15.388Z" transform="translate(-4093.561 -8807.131)" fill="#747474"/>
      <path id="Path_212" data-name="Path 212" d="M4333.58,9089.28l5.77-2.115,8.527-15.452-5.575,2.115Z" transform="translate(-4219.76 -8901.108)" fill="#5b5b5b"/>
      <path id="Path_213" data-name="Path 213" d="M4294.169,8958.941l-15.644-13.462-5.065,2.244,15.066,13.4Z" transform="translate(-4166.058 -8788.336)" fill="#bababa"/>
    </g>
  </g>
</svg>
